<svg xmlns="http://www.w3.org/2000/svg" width="width" height="height" fill="none" viewBox="0 0 14 14" class="h-8 w-8 text-th-primary-dark hover:text-th-primary-light cursor-pointer transition"><path fill="currentColor" d="M9.55 1.271A165.658 165.658 0 0 0 7.063.048a1.463 1.463 0 0 0-.635-.024c-.32.087-.604.314-.738.587-.13.267-.134.296-.142 1.09l-.008.716.27.136c.15.074.275.135.28.135.005 0 .012-.374.015-.832l.005-.832.051-.108a.651.651 0 0 1 .3-.318.452.452 0 0 1 .25-.05h.143l.792.39c1.924.95 4.008 1.999 4.042 2.037.023.026.04.08.045.144.008.097.004.108-.056.171-.074.077-2.269 1.597-2.404 1.665A.63.63 0 0 1 8.884 5C8.837 4.988 7.58 4.37 6.09 3.63a168.288 168.288 0 0 0-2.826-1.388 1.327 1.327 0 0 0-.61-.027 1.17 1.17 0 0 0-.871.922c-.043.223-.043 3.994 0 4.197.045.217.165.437.324.594l.137.134 2.453 1.221c1.35.671 2.5 1.238 2.559 1.259.149.053.45.066.62.026.144-.034.325-.118.457-.213.048-.035.567-.394 1.155-.798.587-.405 1.1-.768 1.14-.806a.884.884 0 0 0 .264-.578.984.984 0 0 0-.11-.411c-.097-.178-.2-.249-.785-.535-.296-.145-1.066-.525-1.712-.845-2.093-1.038-2.532-1.25-2.585-1.25-.069 0-.132.06-.146.139a51.07 51.07 0 0 0-.006 1.467l.005 1.404.549.28v-1.25c0-.792.007-1.252.018-1.252.01 0 .948.462 2.083 1.026 1.916.953 2.116 1.044 2.131 1.16.003.022 0 .044 0 .072 0 .07-.011.1-.053.146-.029.031-.477.348-.995.705l-1.175.808c-.282.194-.407.238-.583.205-.161-.03-4.923-2.399-5.03-2.502a.807.807 0 0 1-.125-.167l-.051-.097V3.198l.06-.115c.137-.26.388-.393.636-.34.057.012 1.177.559 2.806 1.37C7.314 4.855 8.582 5.48 8.64 5.5c.151.056.487.069.655.026.19-.048.289-.102.634-.341l1.193-.824c.481-.331.91-.64.954-.684a.785.785 0 0 0-.032-1.11c-.11-.11-.179-.145-2.494-1.297ZM2.31 9.037l-.268-.135a5.726 5.726 0 0 0-.28-.135c-.02 0-.01 4.32.012 4.436.031.175.135.372.263.502a.974.974 0 0 0 1.14.189c.162-.082 2.47-1.686 2.578-1.791.126-.123.216-.265.284-.445.042-.113.05-.17.057-.432l.01-.302-.273-.136c-.187-.094-.274-.129-.28-.112-.005.014-.011.198-.014.41-.006.382-.006.385-.061.484a.733.733 0 0 1-.106.147c-.063.059-2.324 1.617-2.444 1.684a.426.426 0 0 1-.587-.213c-.027-.063-.03-.311-.03-2.111v-2.04Z"></path></svg>